<?xml version="1.0" encoding="UTF-8"?>
<svg width="208px" height="68px" viewBox="0 0 208 68" version="1.1" xmlns="http://www.w3.org/2000/svg" xmlns:xlink="http://www.w3.org/1999/xlink">
    <title>logo copy</title>
    <g id="Page-1" stroke="none" stroke-width="1" fill="none" fill-rule="evenodd">
        <g id="Shop-XL-MENU" transform="translate(-76.000000, -84.000000)" fill-rule="nonzero">
            <g id="CCD_NewLogo2020_ForWeb-01" transform="translate(76.000000, 84.000000)">
                <path d="M27.0295854,22.3868457 C29.7188992,11.8138543 38.6451816,5.28066458 49.2275027,5.28066458 C54.7204202,5.28066458 59.7666736,7.04166358 63.7271721,10.212628 C64.7254602,11.012658 66.1389244,11.027819 67.1360463,10.2277889 L67.1407112,10.2242903 C68.5040277,9.12920546 68.4865343,7.05099338 67.1080569,5.97456816 C62.2262411,2.16334646 56.0114307,0.0629761235 49.2275027,0.0629761235 C37.2690366,0.0629761235 27.073902,6.58916848 22.8440057,17.510861 C23.1798783,17.7697628 23.5075874,18.0426594 23.8236343,18.3307168 C25.1193097,19.5074374 26.1969011,20.8824161 27.0295854,22.3868457 Z" id="Path" fill="#303030"></path>
                <path d="M65.2397653,39.816071 C65.2047785,39.8720497 65.1686256,39.9280285 65.1336388,39.9840073 C65.1686256,39.9291947 65.2036123,39.873216 65.2397653,39.816071 Z" id="Path" fill="#000000"></path>
                <path d="M74.0715835,33.967455 L74.0715835,33.967455 C72.9531742,33.967455 71.9595509,34.6461977 71.5443749,35.6584806 C70.9519329,38.0574044 70.0317818,40.2289144 68.8375679,42.1531849 C68.8119109,42.195169 68.7850878,42.2383193 68.7582646,42.2803033 C68.7197792,42.340947 68.68246,42.4015907 68.6439746,42.4610681 C64.5516928,48.8753029 57.3805783,52.4731056 49.228669,52.4731056 C36.964652,52.4731056 26.9211266,44.3340247 26.237719,30.71019 L26.2365528,30.71019 C26.2470488,30.4944385 26.2528799,30.2786869 26.2528799,30.0606029 C26.2528799,26.2213919 24.5991736,22.7693673 21.9658386,20.3762746 C21.9565088,20.368111 21.9460128,20.3599475 21.936683,20.3517839 C21.1121623,19.6077327 20.1920111,18.9686416 19.1983879,18.4520042 C17.3942386,17.5131935 15.3463483,16.9802289 13.1725058,16.9802289 C5.947745,16.9802289 0.0921317362,22.8370083 0.0921317362,30.0606029 C0.0921317362,37.2853638 5.94891122,43.140977 13.1725058,43.140977 C15.5271131,43.140977 17.7347761,42.5182131 19.6427194,41.4301257 C18.986135,39.6574644 18.4846585,37.8043337 18.139456,35.8812295 C16.8157912,37.011301 15.0991087,37.6935424 13.2214873,37.6935424 C9.03240882,37.6935424 5.63752928,34.2986628 5.63752928,30.1095844 C5.63752928,25.9205059 9.03357505,22.5256264 13.2214873,22.5256264 C14.9941485,22.5256264 16.6233642,23.1355618 17.9155409,24.154842 C19.6077327,25.4901691 20.7144797,27.531062 20.7972817,29.8331892 L20.8136088,29.8331892 C21.1424841,47.2285939 33.7190492,57.8342396 49.2799828,57.8342396 C59.3806533,57.8342396 68.2241338,53.3664335 73.2762183,45.4734261 C73.2843819,45.4605976 73.2925455,45.4477691 73.3007091,45.4337744 C73.3858434,45.2996586 73.4698116,45.1632103 73.5537798,45.0267621 C74.9392545,42.7444607 76.0156797,40.1892628 76.723578,37.3844929 C77.1609122,35.6514832 75.8594056,33.967455 74.0715835,33.967455 Z" id="Path" fill="#CEAC52"></path>
                <g id="Group" transform="translate(78.720154, 26.356674)" fill="#303030">
                    <path d="M16.1615392,7.8323638 L19.9389404,7.8323638 C19.9389404,14.0261822 19.9389404,20.2584859 19.9389404,26.4534705 L16.2373438,26.4534705 L16.0484155,23.4317828 C14.8017215,25.8108808 11.931643,26.9444511 9.62718332,26.9444511 C4.18791221,26.9817702 0.071139695,23.469102 0.071139695,17.1236745 C0.071139695,10.8913707 4.3395214,7.41718788 9.70298791,7.41718788 C12.3468189,7.41718788 14.8775261,8.66388188 16.0484155,10.7782469 L16.1615392,7.8323638 Z M3.96283088,17.1248407 C3.96283088,20.9768802 6.68246644,23.3186591 10.0062063,23.3186591 C18.0508229,23.3186591 18.0508229,10.9683415 10.0062063,10.9683415 C6.68130021,10.9683415 3.96283088,13.3101203 3.96283088,17.1248407 Z" id="Shape"></path>
                    <path d="M23.7163416,35.1033577 L23.7163416,7.8323638 L27.380619,7.8323638 L27.6068666,10.8540515 C29.0424889,8.58807728 31.6863199,7.45450706 34.1785417,7.45450706 C39.7309366,7.49182625 43.5829761,11.5339604 43.5829761,17.1609936 C43.5829761,22.7891931 39.9571841,26.8674802 34.1785417,26.8674802 C31.9125675,26.8674802 29.0040035,26.0359622 27.6068666,23.7326688 L27.6068666,35.1033577 L23.7163416,35.1033577 Z M39.6924512,17.1621599 C39.6924512,13.6494917 37.3506723,11.2319082 33.8006849,11.2319082 C30.2122121,11.2319082 27.9462379,13.83842 27.9462379,17.1621599 C27.9462379,20.4858997 30.4011405,23.0924115 33.8006849,23.0924115 C37.2002294,23.0924115 39.6924512,20.6375089 39.6924512,17.1621599 Z" id="Shape"></path>
                    <path d="M58.1246295,12.4027977 C56.651688,11.0429799 55.0656226,10.6651231 53.2148243,10.6651231 C50.8357263,10.6278039 49.2484948,11.4208366 49.2484948,12.8937782 C49.285814,14.4425243 50.9103647,15.0466286 53.2894627,15.2728762 C56.7263263,15.5749283 61.2209556,16.3306418 61.1836364,21.1273232 C61.1463172,24.6026722 58.0861441,27.0190894 53.2521435,27.0190894 C50.2304558,27.0190894 47.2087681,26.3391805 44.7538655,23.5822258 L46.7935922,20.8252711 C48.5312667,22.7518739 51.1366123,23.5449066 53.3279481,23.5822258 C55.1787464,23.5822258 57.2557923,22.9023169 57.2942777,21.1646424 C57.3315969,19.5027725 55.7455315,18.8601828 52.9885768,18.596616 C49.4759086,18.2572447 45.4349406,17.1236745 45.3964552,13.0069019 C45.3964552,8.89012943 49.6648369,7.34138328 53.1390197,7.34138328 C56.0090983,7.34138328 58.2377533,7.98397299 60.3147992,9.83477128 L58.1246295,12.4027977 Z" id="Path"></path>
                    <path d="M67.1512072,7.8323638 L67.1512072,17.8035834 C67.1512072,20.975714 68.9646863,23.1670499 72.2126216,23.1670499 C75.2716285,23.1670499 77.3871597,20.6363427 77.3871597,17.5388504 L77.3871597,7.8323638 L81.2776847,7.8323638 L81.2776847,26.4907897 L77.7650165,26.4907897 L77.5387689,23.733835 C75.7252898,25.8108808 73.7240486,26.7555227 71.1175368,26.7555227 C66.5471029,26.7555227 63.2618485,23.469102 63.2618485,17.8420688 L63.2618485,7.83353003 L67.1512072,7.8323638 L67.1512072,7.8323638 Z" id="Path"></path>
                    <polygon id="Path" points="89.0960538 0.0524801029 89.0960538 26.4534705 85.2055288 26.4534705 85.2055288 0.0524801029"></polygon>
                    <path d="M95.9324619,18.5977822 C96.2718332,21.4305416 98.613612,23.2813399 102.013156,23.2813399 C103.901274,23.2813399 106.281538,22.5641118 107.413942,21.2800986 L109.944649,23.7350012 C108.018046,25.8505325 104.80743,26.9071319 101.937352,26.9071319 C95.8181719,26.9071319 91.8903277,23.0166069 91.8903277,17.0490361 C91.8903277,11.3835174 95.8566573,7.34254951 101.672619,7.34254951 C107.678675,7.34254951 111.756962,11.0068269 111.039734,18.5977822 L95.9324619,18.5977822 L95.9324619,18.5977822 Z M107.301985,15.3113616 C107.075737,12.3654785 104.922887,10.8167323 101.788075,10.8167323 C98.9553158,10.8167323 96.613537,12.3654785 96.0094327,15.3113616 L107.301985,15.3113616 Z" id="Shape"></path>
                    <path d="M125.393625,12.4027977 C123.920684,11.0429799 122.334619,10.6651231 120.48382,10.6651231 C118.104722,10.6278039 116.517491,11.4208366 116.517491,12.8937782 C116.55481,14.4425243 118.179361,15.0466286 120.558459,15.2728762 C123.995322,15.5749283 128.489951,16.3306418 128.452632,21.1273232 C128.415313,24.6026722 125.35514,27.0190894 120.521139,27.0190894 C117.499452,27.0190894 114.477764,26.3391805 112.022861,23.5822258 L114.062588,20.8252711 C115.800263,22.7518739 118.405608,23.5449066 120.596944,23.5822258 C122.447742,23.5822258 124.524788,22.9023169 124.563274,21.1646424 C124.600593,19.5027725 123.014527,18.8601828 120.257573,18.596616 C116.744904,18.2572447 112.703937,17.1236745 112.665451,13.0069019 C112.665451,8.89012943 116.933833,7.34138328 120.408016,7.34138328 C123.278094,7.34138328 125.506749,7.98397299 127.583795,9.83477128 L125.393625,12.4027977 Z" id="Path"></path>
                </g>
                <path d="M66.9879358,34.0001093 L32.014029,34.0001093 C31.3784366,34.0001093 30.8629654,34.5155806 30.8629654,35.1511729 L30.8629654,36.6089536 C30.8629654,37.2445459 31.3784366,37.7600172 32.014029,37.7600172 L33.0111509,37.7600172 C35.2444709,46.8192491 43.0453466,51.3372029 51.618263,50.2117962 C58.7718841,49.2729855 64.39192,44.6757285 65.9523284,37.7600172 L66.9879358,37.7600172 C67.6235282,37.7600172 68.1390014,37.2445459 68.1390014,36.6089536 L68.1390014,35.1511729 C68.1401656,34.5155806 67.6246944,34.0001093 66.9879358,34.0001093 Z" id="Path" fill="#303030"></path>
                <g id="Group" transform="translate(64.025726, 3.848541)" fill="#303030">
                    <path d="M19.3406673,17.5435153 C19.3406673,23.0574248 15.5259469,27.2126827 9.67149985,27.2126827 C3.854372,27.2126827 0.0781370421,23.0574248 0.0781370421,17.5435153 C0.0781370421,12.066925 3.89285741,7.8370287 9.67149985,7.8370287 C15.4128231,7.8370287 19.3406673,12.066925 19.3406673,17.5435153 Z M3.968662,17.5435153 C3.968662,20.8672551 6.12151245,23.5868907 9.67149985,23.5868907 C13.2599727,23.5868907 15.4128231,20.8672551 15.4128231,17.5435153 C15.4128231,14.2570946 13.0710443,11.4243353 9.67149985,11.4243353 C6.12151245,11.4243353 3.968662,14.2570946 3.968662,17.5435153 Z" id="Shape"></path>
                    <path d="M23.6475344,26.834826 L23.6475344,11.8779966 L20.097547,11.8779966 L20.097547,8.441133 L23.6475344,8.441133 L23.6475344,7.08131522 C23.6475344,2.43507677 26.5560983,0.0186595921 30.3708187,0.0186595921 C31.956884,0.0186595921 33.5429493,0.546959295 34.9412525,1.49160115 L33.4309918,4.40016507 C32.4490307,3.75757537 31.5801935,3.41820404 30.5982324,3.41820404 C28.8232387,3.41820404 27.5765447,4.58909344 27.5765447,7.08248144 L27.5765447,8.44229922 L33.2047442,8.44229922 L33.2047442,11.8791628 L27.5765447,11.8791628 L27.5765447,26.834826 L23.6475344,26.834826 Z" id="Path"></path>
                    <path d="M38.3781161,26.834826 L38.3781161,11.8779966 L34.8281287,11.8779966 L34.8281287,8.441133 L38.3781161,8.441133 L38.3781161,7.08131522 C38.3781161,2.43507677 41.2866801,0.0186595921 45.1014004,0.0186595921 C46.6874658,0.0186595921 48.2735311,0.546959295 49.6718343,1.49160115 L48.1615735,4.40016507 C47.1796125,3.75757537 46.3107752,3.41820404 45.3288142,3.41820404 C43.5538205,3.41820404 42.3071265,4.58909344 42.3071265,7.08248144 L42.3071265,8.44229922 L47.935326,8.44229922 L47.935326,11.8791628 L42.3071265,11.8791628 L42.3071265,26.834826 L38.3781161,26.834826 Z" id="Path"></path>
                    <path d="M52.2398607,18.9791377 C52.579232,21.811897 54.9210108,23.6626953 58.3205552,23.6626953 C60.2086727,23.6626953 62.5889369,22.9454672 63.7213409,21.6602878 L66.2520481,24.1151904 C64.3254452,26.2307217 61.1148292,27.2873211 58.2447506,27.2873211 C52.1255707,27.2873211 48.1977265,23.3967961 48.1977265,17.4292253 C48.1977265,11.7637066 52.1640561,7.7227387 57.9800177,7.7227387 C63.9849077,7.7227387 68.064361,11.3870161 67.3471329,18.9779714 L52.2398607,18.9779714 L52.2398607,18.9791377 L52.2398607,18.9791377 Z M63.6093834,15.692717 C63.3831358,12.7468339 61.2302854,11.1980877 58.0954739,11.1980877 C55.2627146,11.1980877 52.9209358,12.7468339 52.3168315,15.692717 L63.6093834,15.692717 Z" id="Shape"></path>
                    <path d="M72.7117657,18.9791377 C73.051137,21.811897 75.3929158,23.6626953 78.7924603,23.6626953 C80.6805778,23.6626953 83.060842,22.9454672 84.193246,21.6602878 L86.7239532,24.1151904 C84.7973503,26.2307217 81.5867342,27.2873211 78.7166557,27.2873211 C72.5974757,27.2873211 68.6696315,23.3967961 68.6696315,17.4292253 C68.6696315,11.7637066 72.6359611,7.7227387 78.4519227,7.7227387 C84.4568127,7.7227387 88.536266,11.3870161 87.819038,18.9779714 L72.7117657,18.9779714 L72.7117657,18.9791377 L72.7117657,18.9791377 Z M84.0801222,15.692717 C83.8538746,12.7468339 81.7010242,11.1980877 78.5662127,11.1980877 C75.7334534,11.1980877 73.3916746,12.7468339 72.7875703,15.692717 L84.0801222,15.692717 Z" id="Shape"></path>
                </g>
                <path d="M153.480976,57.366569 C156.985481,57.3595862 158.58904,59.8634703 158.639188,62.4011748 C158.70333,64.9971906 157.095106,67.6246944 153.501969,67.6328579 C152.270435,67.6351904 150.847642,67.6386891 149.616108,67.6410215 L149.595116,57.3759134 L153.480976,57.366569 Z M151.240659,66.0526237 L153.499636,66.0479588 C156.007019,66.0432939 157.058953,64.1924956 157.012304,62.3895126 C156.964489,60.6588354 155.905557,58.9304907 153.485641,58.9351461 L151.226665,58.9398205 L151.240659,66.0526237 Z" id="Shape" fill="#303030"></path>
                <g id="Group" transform="translate(160.589115, 57.261623)" fill="#303030">
                    <polygon id="Path" points="0.0256569392 10.3560736 0.00466489804 0.0909655117 1.63271431 0.0874668382 1.65370635 10.352575"></polygon>
                    <path d="M12.8716199,10.3292505 L10.9508481,10.3327491 L7.81953533,6.78975909 L5.64919152,6.79442399 L5.65618887,10.3432452 L4.01414476,10.3467438 L3.99315272,0.066474797 C5.59204652,0.0629761235 7.1757794,0.0746383686 8.77350698,0.071139695 C11.1491063,0.066474797 12.399299,1.69102554 12.4027977,3.42170271 C12.4062963,4.88881314 11.6459179,6.32676796 9.62251842,6.62415521 L12.6943538,10.0353619 L12.8716199,10.3292505 Z M5.6386955,1.57440309 L5.64685907,5.29932417 L8.77000831,5.29349305 C10.1333248,5.2911606 10.7327642,4.42465579 10.7315996,3.45668944 C10.7292655,2.53303963 10.1263274,1.56623952 8.77700565,1.56856775 L5.6386955,1.57440309 Z" id="Shape"></path>
                </g>
                <path d="M182.391682,67.5733805 L174.810057,67.5885414 C174.803059,64.1715036 174.796062,60.7404711 174.789065,57.3234333 L182.326374,57.3082724 L182.329872,58.9071662 L176.434607,58.9188284 L176.440438,61.6909441 L182.101292,61.6792818 L182.104791,63.2047035 L176.443937,63.2163657 L176.449768,65.9733205 L182.38935,65.9616582 L182.391682,67.5733805 Z" id="Path" fill="#303030"></path>
                <path d="M193.328536,66.2310561 C192.274269,67.274827 190.912118,67.7611426 189.47533,67.7646608 C185.750409,67.7728049 184.073378,65.2094434 184.053552,62.5107999 C184.033726,59.8121564 185.787728,57.1251751 189.454338,57.1181698 C190.832815,57.1158453 192.168142,57.6254854 193.211913,58.6645915 L192.114496,59.7223571 C191.379774,59.005129 190.410642,58.6704226 189.457836,58.6715888 C186.847826,58.6774199 185.662942,60.6005242 185.681601,62.4921403 C185.700261,64.3697618 186.81867,66.2298899 189.472997,66.2240587 C190.425803,66.2217263 191.481236,65.8240437 192.198464,65.1044832 L193.328536,66.2310561 Z" id="Path" fill="#303030"></path>
                <path d="M197.609746,58.7578894 L194.237024,58.7648868 L194.233526,57.2837817 C197.181741,57.2779505 199.673963,57.2721194 202.622179,57.2662883 L202.625677,58.7473934 L199.266951,58.7543908 L199.284444,67.5383938 L197.627239,67.5418924 L197.609746,58.7578894 Z" id="Path" fill="#303030"></path>
                <path d="M141.094506,56.9828957 C138.071652,56.9828957 135.621414,59.4331334 135.621414,62.4559874 C135.621414,65.4788413 138.071652,67.929079 141.094506,67.929079 C144.11736,67.929079 146.567598,65.4788413 146.567598,62.4559874 C146.567598,59.4331334 144.11736,56.9828957 141.094506,56.9828957 Z" id="Path" fill="#CEAC52"></path>
                <path d="M138.643102,65.7645663 L138.629107,59.1485746 C138.629107,59.0995932 138.668759,59.0599416 138.71774,59.0587754 L139.697369,59.0587754 C139.74635,59.0587754 139.786002,59.098427 139.787168,59.1474084 L139.788335,59.6278929 C139.788335,59.6722094 139.820989,59.7095286 139.865305,59.7153598 L143.711514,60.3206303 C143.741836,60.3252952 143.768659,60.345121 143.780321,60.3731104 L144.638662,62.3347 C144.643327,62.345196 144.64566,62.3580245 144.64566,62.3696867 L144.647992,62.7090581 C144.647992,62.7230528 144.64566,62.7358812 144.639828,62.7487097 L143.760495,64.5925107 C143.747667,64.6193338 143.72201,64.6391596 143.691688,64.6426583 L139.819823,65.1942825 C139.775506,65.2001136 139.741686,65.2374328 139.741686,65.2829156 L139.742852,65.7622338 C139.742852,65.8112153 139.7032,65.8508669 139.654219,65.8520582 L138.732901,65.8520582 C138.68392,65.8531993 138.644268,65.8135477 138.643102,65.7645663 Z" id="Path" fill="#FFFFFF"></path>
            </g>
        </g>
    </g>
</svg>